<?xml version="1.0" encoding="utf-8"?>
<!-- Generator: Adobe Illustrator 16.0.0, SVG Export Plug-In . SVG Version: 6.00 Build 0)  -->
<!DOCTYPE svg PUBLIC "-//W3C//DTD SVG 1.1//EN" "http://www.w3.org/Graphics/SVG/1.1/DTD/svg11.dtd">
<svg version="1.1" id="Layer_1" xmlns="http://www.w3.org/2000/svg" xmlns:xlink="http://www.w3.org/1999/xlink" x="0px" y="0px"
	 width="115.666px" height="43.475px" viewBox="0 0 115.666 43.475" enable-background="new 0 0 115.666 43.475"
	 xml:space="preserve">
<g>
	<path fill="#FFFFFF" d="M27.574,17.045c-1.688,0-3.034,0.808-4.038,2.417c-1.002,1.61-1.506,3.468-1.506,5.566
		c0,1.733,0.853,2.603,2.557,2.603c1.085,0,2.031-0.669,2.838-2c0.808-1.338,1.527-4.1,2.167-8.282
		C28.876,17.149,28.207,17.045,27.574,17.045 M31.906,24.618c-0.073,0.375-0.108,0.786-0.108,1.239c0,2.212,0.17,3.729,0.508,4.553
		h-2.349c-0.706,0-1.23-0.535-1.569-1.605c-1.281,1.275-2.881,1.913-4.794,1.913c-1.745,0-3.093-0.494-4.049-1.476
		c-0.957-0.988-1.436-2.361-1.436-4.121c0-3.066,0.927-5.695,2.778-7.88s4.191-3.282,7.011-3.282c2.721,0,4.688,0.252,5.89,0.757
		L31.906,24.618z M57.523,19.829l-1.98,10.582h-3.832l1.893-10.191c0.062-0.323,0.093-0.663,0.093-1.023
		c0-1.394-0.74-2.088-2.212-2.088c-0.523,0-1.091,0.18-1.702,0.535c-0.612,0.359-1.064,0.745-1.368,1.163L46.253,30.41H42.38
		l2.16-11.379c0.017-0.113,0.025-0.231,0.025-0.365c0-1.04-0.796-1.559-2.391-1.559c-0.479,0-1.024,0.18-1.632,0.535
		c-0.606,0.355-1.091,0.761-1.45,1.224l-2.16,11.543h-3.857l2.206-11.663c0.052-0.267,0.077-0.689,0.077-1.264
		c0-0.993-0.139-1.965-0.422-2.906l3.698-0.648c0.134,0.509,0.242,0.993,0.335,1.45c1.214-0.946,2.726-1.42,4.542-1.42
		c2.125,0,3.626,0.576,4.511,1.729c1.275-1.152,2.881-1.729,4.814-1.729c3.225,0,4.836,1.472,4.836,4.408
		C57.673,18.8,57.621,19.289,57.523,19.829z M61.625,30.41h-3.832l2.453-13.118h-2.083l0.634-3.024h5.854L61.625,30.41z
		 M60.514,9.083c0-0.673,0.236-1.23,0.715-1.677s1.056-0.668,1.738-0.668c0.676,0,1.251,0.221,1.734,0.668
		c0.479,0.447,0.72,1.004,0.72,1.677c0,0.664-0.241,1.219-0.72,1.667c-0.483,0.453-1.059,0.679-1.734,0.679
		c-0.673,0-1.25-0.221-1.731-0.668C60.756,10.312,60.514,9.756,60.514,9.083z M14.014,20.657l-1.79,9.753H8.335l1.821-9.877
		L4.971,8.343h4.073l3.555,8.641l6.63-8.641h4.476L14.014,20.657z"/>
	<path fill="#509835" d="M65.634,28.326c0-0.664,0.231-1.225,0.7-1.692c0.468-0.468,1.028-0.7,1.692-0.7
		c0.662,0,1.223,0.232,1.691,0.7c0.468,0.468,0.7,1.029,0.7,1.692c0,0.663-0.232,1.224-0.7,1.692
		c-0.469,0.468-1.029,0.699-1.691,0.699c-0.664,0-1.225-0.231-1.692-0.699C65.865,29.55,65.634,28.989,65.634,28.326"/>
	<path fill="#FFFFFF" d="M84.433,30.41h-3.832l2.455-13.118h-2.084l0.633-3.024h5.854L84.433,30.41z M83.322,9.083
		c0-0.673,0.237-1.23,0.716-1.677c0.478-0.447,1.054-0.668,1.738-0.668c0.673,0,1.25,0.221,1.732,0.668
		c0.479,0.447,0.721,1.004,0.721,1.677c0,0.664-0.242,1.219-0.721,1.667c-0.482,0.453-1.06,0.679-1.732,0.679
		c-0.675,0-1.25-0.221-1.734-0.668C83.563,10.312,83.322,9.756,83.322,9.083z M99.872,11.274c-0.808-0.371-1.503-0.556-2.079-0.556
		c-1.439,0-2.428,1.184-2.968,3.549h3.673l-0.375,3.025h-3.766l-2.434,14.14c-0.262,1.533-0.967,2.803-2.124,3.796
		c-1.151,0.993-2.505,1.497-4.054,1.508l-0.797-2.501c0.715-0.164,1.364-0.52,1.935-1.069c0.576-0.556,0.93-1.184,1.059-1.889
		l2.511-13.985h-2.264l0.5-3.025h2.216c1.034-4.403,3.385-6.604,7.059-6.604c1.044,0,1.934,0.215,2.664,0.647L99.872,11.274z
		 M101.792,20.555c0.647,0.188,1.356,0.287,2.119,0.287c1.362,0,2.515-0.211,3.456-0.627c0.94-0.417,1.415-1.014,1.415-1.796
		c0-0.874-0.952-1.312-2.855-1.312c-0.756,0-1.522,0.33-2.304,0.987C102.842,18.753,102.229,19.571,101.792,20.555z M101.066,23.404
		c-0.021,0.258-0.031,0.483-0.031,0.673c0,1.127,0.335,1.986,1.004,2.587c0.663,0.603,1.589,0.906,2.772,0.906
		c0.632,0,1.362-0.174,2.186-0.52c0.822-0.344,1.465-0.735,1.938-1.168l-0.436,3.978c-1.277,0.571-2.83,0.858-4.666,0.858
		c-1.991,0-3.602-0.627-4.835-1.888c-1.234-1.256-1.853-2.978-1.853-5.168c0-2.779,0.89-5.089,2.67-6.935
		c1.785-1.846,4.114-2.768,6.995-2.768c1.697,0,3.071,0.361,4.125,1.081c1.056,0.715,1.58,1.745,1.58,3.081
		c0,1.821-0.788,3.252-2.355,4.285c-1.57,1.034-3.503,1.553-5.798,1.553C103.237,23.959,102.142,23.774,101.066,23.404z
		 M78.438,29.145c-0.596,0.946-1.497,1.419-2.704,1.419c-0.907,0-1.621-0.298-2.146-0.89s-0.787-1.364-0.787-2.31
		c0-1.225,0.242-2.988,0.726-5.288l3.04-14.412h3.735l-3.112,15.019c-0.443,2.141-0.664,3.664-0.664,4.578
		c0,0.582,0.18,1.04,0.545,1.379C77.437,28.975,77.888,29.145,78.438,29.145z"/>
</g>
</svg>
